<svg width="134" height="45" viewBox="0 0 134 45" fill="none" xmlns="http://www.w3.org/2000/svg">
<path d="M2.14301e-05 22.477C0.00458828 18.1249 1.30579 13.8719 3.73903 10.256C6.17226 6.64016 9.62818 3.82395 13.6696 2.1637C17.711 0.503444 22.1563 0.0737243 26.4431 0.928911C30.7298 1.7841 34.6655 3.88578 37.7521 6.96803C40.8388 10.0503 42.9377 13.9746 43.7834 18.2446C44.6291 22.5146 44.1835 26.9383 42.503 30.9561C40.8226 34.9739 37.9827 38.4053 34.3428 40.8162C30.7028 43.227 26.4263 44.509 22.0543 44.5C16.1963 44.4898 10.5821 42.1641 6.44638 38.0342C2.31061 33.9044 -0.00813204 28.3084 2.14301e-05 22.477ZM5.6979 33.3241C5.8054 33.2324 5.8054 33.0872 5.83612 32.9649C7.1262 27.6674 8.56219 22.4159 10.3053 17.256C10.5023 16.5412 10.7751 15.8494 11.1193 15.1921C12.0648 13.7081 13.481 12.5809 15.1432 11.9892C19.4624 10.375 24.2118 10.3102 28.5739 11.8057C31.108 12.7383 33.1045 14.2213 33.8264 16.9885C33.8538 17.0922 33.8871 17.1943 33.9262 17.2943C35.462 21.8808 36.8058 26.6202 37.9807 31.3519C38.142 32.017 38.3109 32.6744 38.4876 33.3777C42.9645 27.1935 43.6863 16.2776 36.0917 8.65632C34.2589 6.81497 32.0778 5.35336 29.6744 4.35587C27.271 3.35839 24.6928 2.84481 22.0889 2.84481C19.4849 2.84481 16.9068 3.35839 14.5034 4.35587C12.0999 5.35336 9.91884 6.81497 8.08609 8.65632C0.514519 16.3387 1.27475 27.2394 5.6979 33.3241ZM24.7727 35.6174C26.0664 33.3321 26.9451 30.8375 27.3683 28.2484C27.5114 27.317 27.5935 26.3773 27.614 25.4353C27.614 25.2901 27.614 25.0837 27.8367 25.1754C28.6046 25.443 28.9271 24.9843 28.9962 24.2658C29.1919 22.7769 28.9686 21.2632 28.3512 19.8933C27.9394 19.1007 27.4424 18.3548 26.8691 17.6688C26.4033 17.0833 25.7355 16.691 24.9954 16.5681C23.3041 16.2438 21.57 16.205 19.8658 16.4534C19.1106 16.458 18.3815 16.7289 17.8078 17.2178C16.8347 18.1329 16.094 19.265 15.6467 20.521C15.1994 21.7769 15.0584 23.1207 15.2353 24.4416C15.3659 25.1372 15.6577 25.3971 16.272 25.2519C16.5791 25.1754 16.6099 25.2519 16.6175 25.5271C16.6746 28.4309 17.3279 31.2925 18.5373 33.9357C18.8092 34.5707 19.1248 35.1862 19.4818 35.7779C19.4818 35.6556 19.4818 35.6174 19.4818 35.5792C18.7357 32.2059 18.4771 28.7438 18.7139 25.2977C18.7129 25.1315 18.7565 24.9681 18.8402 24.8243C18.9239 24.6805 19.0447 24.5615 19.19 24.4798C19.7727 24.1578 20.3055 23.7535 20.7719 23.2797C20.9371 23.1198 21.0451 22.9103 21.0791 22.6834C21.2327 21.5368 21.3863 20.3902 21.5552 19.2435C21.581 19.1454 21.574 19.0416 21.5352 18.9478C21.4964 18.8539 21.4279 18.7753 21.3402 18.7237C21.0733 18.5589 20.8326 18.3554 20.626 18.1198C20.5464 18.0369 20.4936 17.9321 20.4744 17.819C20.4553 17.7059 20.4706 17.5897 20.5185 17.4854C20.6107 17.2484 20.8257 17.3019 21.0023 17.2943H23.306C23.4903 17.2943 23.6977 17.2561 23.7898 17.4854C23.8384 17.5914 23.8535 17.7096 23.8329 17.8243C23.8123 17.939 23.7571 18.0448 23.6746 18.1275C23.4808 18.3525 23.2527 18.5459 22.9989 18.7008C22.9001 18.7577 22.8231 18.8456 22.78 18.9507C22.7369 19.0559 22.7302 19.1724 22.7608 19.2818C22.9221 20.3596 23.0756 21.4451 23.2062 22.5229C23.2396 22.8455 23.3865 23.1461 23.6209 23.3714C24.1107 23.8181 24.646 24.2126 25.2181 24.5486C25.3177 24.6046 25.4021 24.684 25.4636 24.78C25.5252 24.8759 25.5622 24.9855 25.5714 25.099C25.7558 27.2478 25.7172 29.4098 25.4562 31.5507C25.2795 32.8884 25.0261 34.2567 24.7727 35.6327V35.6174ZM13.8991 17.6C13.8591 17.9947 13.9748 18.3894 14.2217 18.7008C14.2789 18.7768 14.3531 18.8384 14.4384 18.8808C14.5237 18.9233 14.6178 18.9454 14.7131 18.9454C14.8085 18.9454 14.9026 18.9233 14.9879 18.8808C15.0732 18.8384 15.1474 18.7768 15.2046 18.7008C15.4073 18.3973 15.5155 18.041 15.5155 17.6765C15.5155 17.312 15.4073 16.9557 15.2046 16.6522C15.1471 16.5621 15.067 16.4885 14.9721 16.4388C14.8772 16.3891 14.7709 16.365 14.6637 16.3688C14.5566 16.3727 14.4523 16.4044 14.3613 16.4608C14.2703 16.5172 14.1957 16.5964 14.1449 16.6904C13.9688 16.9603 13.8828 17.2786 13.8991 17.6ZM30.317 17.7453C30.3379 17.4065 30.2662 17.0684 30.1097 16.7668C30.0623 16.6527 29.9828 16.5545 29.8808 16.4842C29.7788 16.4139 29.6586 16.3744 29.5346 16.3703C29.4106 16.3663 29.2881 16.3979 29.1817 16.4615C29.0753 16.525 28.9896 16.6178 28.9348 16.7286C28.7705 17.015 28.684 17.339 28.684 17.6688C28.684 17.9986 28.7705 18.3227 28.9348 18.6091C28.99 18.7078 29.0708 18.79 29.1687 18.8472C29.2665 18.9045 29.378 18.9347 29.4915 18.9347C29.605 18.9347 29.7165 18.9045 29.8144 18.8472C29.9122 18.79 29.993 18.7078 30.0483 18.6091C30.2204 18.359 30.3139 18.0637 30.317 17.7606V17.7453Z" fill="#41ABA3"/>
<path d="M59.7497 31.5084L65.079 19.8373C65.2717 21.0491 65.4643 23.6001 65.7211 27.4905C65.8816 29.9777 65.978 31.3808 66.0422 31.6997C66.1385 32.4331 66.3632 32.9752 66.7164 33.2941C67.0374 33.6449 67.6153 33.8043 68.4179 33.8043C69.0921 33.8043 69.67 33.613 70.1515 33.2303C70.601 32.8477 70.9541 32.4331 71.1789 31.9229L71.4357 31.317C72.1741 29.627 72.6878 28.5109 72.9446 27.9688C74.1004 25.5772 75.3845 22.9623 76.8292 20.1243C78.2418 17.3181 79.2049 15.5005 79.6865 14.7033C79.8791 14.3525 80.0076 13.9699 80.0076 13.5872C80.0076 13.0451 79.7828 12.5668 79.3976 12.1841C78.9802 11.8015 78.4665 11.6102 77.8245 11.6102C77.1182 11.6102 76.5724 11.7696 76.155 12.0885C75.7377 12.4074 75.4166 12.8219 75.1919 13.2683C74.9672 13.7467 74.7424 14.3844 74.4856 15.1497C74.2288 15.9151 74.0361 16.3934 73.9719 16.5847L69.1242 27.6818C68.8031 22.1014 68.6426 18.2748 68.6426 16.2021L68.6747 15.0541L68.7068 14.3844C68.7068 13.4597 68.5142 12.79 68.1611 12.3755C67.8079 11.9609 67.1979 11.7377 66.3311 11.7377C65.4964 11.7377 64.8222 11.9928 64.3085 12.503C63.7628 13.0132 63.3133 13.8423 62.9923 14.9265C62.6391 16.0426 62.1254 17.4457 61.4191 19.1677C60.7128 20.8896 59.7497 23.0899 58.594 25.8004C58.4013 26.2468 58.2087 26.5976 58.0803 26.9165C57.9519 27.2354 57.8235 27.4905 57.7593 27.6818C57.4703 25.7685 57.2456 22.7391 57.053 18.6256L56.9245 16.5847C56.8924 16.3934 56.8924 16.0426 56.8924 15.5324C56.8603 14.6714 56.7961 13.9699 56.7319 13.4278C56.6677 12.9176 56.4751 12.4393 56.154 12.0566C55.833 11.6739 55.3514 11.4826 54.7093 11.4826C53.9388 11.4826 53.361 11.6739 52.9757 12.0566C52.5583 12.4393 52.3336 12.9176 52.2694 13.4278L52.2373 13.7148C52.2373 14.0337 52.3015 14.4801 52.462 15.1179C52.5905 15.6918 52.8794 17.35 53.2646 20.0605C53.6499 22.8029 53.9709 25.4496 54.2278 28.0007C54.3241 28.7341 54.3883 29.3719 54.4204 29.914C54.4525 30.2328 54.4846 30.5198 54.5167 30.7749C54.5167 31.0619 54.5488 31.317 54.613 31.5084C54.6772 32.2737 54.902 32.7839 55.223 33.1028C55.5441 33.4217 56.1219 33.5811 56.9887 33.5811C58.2087 33.5811 59.1076 32.9114 59.7497 31.5084Z" fill="#102927"/>
<path d="M87.0795 32.9433C87.4648 33.326 88.1069 33.5173 89.0379 33.5173C89.8084 33.5173 90.4505 33.326 90.9 32.9433C91.3494 32.5607 91.5741 32.0505 91.5741 31.3489C91.5741 30.9663 91.4778 30.6793 91.3494 30.4879C91.221 30.2966 91.0284 30.1372 90.7715 29.9777C90.5147 29.8502 90.3542 29.7226 90.2258 29.5632C90.0973 29.4037 90.0652 29.1486 90.0652 28.8298L90.1294 27.905L90.6431 24.9075C90.7394 24.3335 90.9963 23.5363 91.4457 22.4521C91.5741 22.1651 91.6705 21.8781 91.7668 21.5912C91.8631 21.3042 91.9273 21.0491 91.9273 20.8577C91.9273 20.3794 91.7668 19.9967 91.4457 19.7098C91.1247 19.4546 90.6752 19.2952 90.0973 19.2952C89.6158 19.2952 89.2305 19.4228 88.9737 19.6141C88.7169 19.8373 88.5242 20.0605 88.4279 20.3156C88.2995 20.5707 88.2032 20.8896 88.0748 21.3042C87.8179 20.7939 87.4327 20.3156 86.8869 19.9011C86.309 19.4865 85.5706 19.2633 84.6075 19.2633C83.1949 19.2633 82.007 19.7098 81.0118 20.5388C79.9845 21.3679 79.214 22.484 78.7003 23.8233C78.1866 25.1626 77.9298 26.5976 77.9298 28.0644C77.9298 29.7226 78.2829 31.0619 79.0534 32.0186C79.7919 32.9752 80.9155 33.4535 82.4565 33.4535C84.3828 33.4535 85.7312 32.6882 86.5017 31.0938C86.5017 31.9548 86.6943 32.5607 87.0795 32.9433ZM86.0201 28.5428C85.4101 29.4994 84.5754 29.9777 83.4838 29.9777C82.3281 29.9777 81.7502 29.2443 81.7502 27.7456C81.7502 26.4063 82.0392 25.2902 82.617 24.3654C83.1949 23.4407 83.9975 22.9623 85.0891 22.9623C85.7312 22.9623 86.1806 23.1537 86.4696 23.5044C86.7585 23.8871 86.919 24.3973 86.919 25.0988C86.919 26.4382 86.598 27.5861 86.0201 28.5428Z" fill="#102927"/>
<path d="M96.4578 15.4367C96.4578 15.7556 96.4257 15.947 96.4257 16.0745L94.1141 28.766C93.9857 29.3719 93.9536 29.8502 93.9536 30.201C93.9536 31.4127 94.2747 32.2418 94.9489 32.752C95.5909 33.2622 96.3936 33.5173 97.3246 33.5173C98.4161 33.5173 99.2508 33.326 99.8929 32.9114C100.503 32.5288 100.824 31.9229 100.824 31.0938C100.824 30.5198 100.696 30.1372 100.471 29.8821C100.214 29.6589 99.9571 29.5313 99.6361 29.5313C99.4435 29.5313 99.2508 29.5951 98.994 29.6589C98.7372 29.7545 98.5445 29.7864 98.4161 29.7864C97.9346 29.7864 97.7098 29.5313 97.7098 28.9573C97.7098 28.766 97.7419 28.5428 97.8061 28.2558L99.8929 17.063C100.021 16.2658 100.246 15.5324 100.535 14.8309C100.76 14.2888 100.92 13.7786 100.984 13.3321C100.984 13.2683 101.017 13.1089 101.017 12.9176C101.017 12.4393 100.824 12.0247 100.471 11.7058C100.086 11.3869 99.604 11.1956 98.9619 11.1956C98.3519 11.1956 97.8382 11.4188 97.3888 11.8015C96.9393 12.1841 96.6183 12.7581 96.4899 13.5235C96.4257 13.8742 96.4257 14.1293 96.4257 14.3207L96.4578 15.4367Z" fill="#102927"/>
<path d="M105.174 15.4367C105.174 15.7556 105.141 15.947 105.141 16.0745L102.83 28.766C102.702 29.3719 102.669 29.8502 102.669 30.201C102.669 31.4127 102.99 32.2418 103.665 32.752C104.307 33.2622 105.109 33.5173 106.04 33.5173C107.132 33.5173 107.967 33.326 108.609 32.9114C109.219 32.5288 109.54 31.9229 109.54 31.0938C109.54 30.5198 109.411 30.1372 109.187 29.8821C108.93 29.6589 108.673 29.5313 108.352 29.5313C108.159 29.5313 107.967 29.5951 107.71 29.6589C107.453 29.7545 107.26 29.7864 107.132 29.7864C106.65 29.7864 106.426 29.5313 106.426 28.9573C106.426 28.766 106.458 28.5428 106.522 28.2558L108.609 17.063C108.737 16.2658 108.962 15.5324 109.251 14.8309C109.476 14.2888 109.636 13.7786 109.7 13.3321C109.7 13.2683 109.732 13.1089 109.732 12.9176C109.732 12.4393 109.54 12.0247 109.187 11.7058C108.801 11.3869 108.32 11.1956 107.678 11.1956C107.068 11.1956 106.554 11.4188 106.105 11.8015C105.655 12.1841 105.334 12.7581 105.206 13.5235C105.141 13.8742 105.141 14.1293 105.141 14.3207L105.174 15.4367Z" fill="#102927"/>
<path d="M114.178 16.3615C114.628 16.7123 115.141 16.8717 115.751 16.8717C116.586 16.8717 117.26 16.6166 117.806 16.0426C118.32 15.4686 118.609 14.8309 118.609 14.1293C118.609 13.5553 118.384 13.077 117.999 12.7581C117.581 12.4393 117.036 12.2479 116.394 12.2479C115.591 12.2479 114.917 12.503 114.339 13.0132C113.761 13.5235 113.504 14.1931 113.504 14.9584C113.504 15.5643 113.729 16.0426 114.178 16.3615ZM115.174 33.4854C117.357 33.4854 118.48 32.6563 118.48 30.9663C118.48 30.0415 118.063 29.5632 117.292 29.5632C117.1 29.5632 116.907 29.627 116.65 29.6907C116.394 29.7545 116.201 29.7864 116.137 29.7864C115.559 29.7864 115.27 29.4675 115.27 28.8298C115.27 28.5747 115.27 28.3514 115.334 28.192L115.912 24.8756C115.976 24.3016 116.169 23.632 116.458 22.8348C116.554 22.5159 116.65 22.197 116.747 21.8781C116.811 21.5593 116.875 21.2085 116.875 20.8896C116.875 20.3794 116.682 19.9967 116.361 19.7416C116.008 19.4865 115.527 19.3271 114.949 19.3271C114.339 19.3271 113.793 19.5503 113.344 19.9967C112.894 20.4432 112.637 21.1128 112.573 22.0376C112.509 22.8667 112.509 23.2174 112.509 23.1537C112.509 23.6639 112.445 24.1741 112.348 24.6843C111.771 27.618 111.482 29.4037 111.482 29.9777C111.482 31.2533 111.803 32.1461 112.509 32.6882C113.215 33.2303 114.082 33.4854 115.174 33.4854Z" fill="#102927"/>
<path d="M132.78 20.6983C131.977 19.7416 130.822 19.2633 129.313 19.2633C128.414 19.2633 127.643 19.4228 127.065 19.7098C126.455 19.9967 125.91 20.4432 125.428 21.0491L126.423 15.8513C126.455 15.5643 126.584 15.2135 126.809 14.799C127.098 14.1293 127.258 13.5235 127.258 12.9814C127.258 12.4074 127.065 11.9928 126.68 11.7058C126.295 11.4188 125.878 11.2594 125.428 11.2594C124.786 11.2594 124.208 11.4188 123.759 11.7377C123.277 12.0566 122.988 12.5668 122.86 13.2046L122.571 15.4049C122.507 15.9788 122.475 16.3934 122.442 16.7123C122.121 19.1039 121.8 21.2404 121.447 23.1537C121.062 25.067 120.548 27.5542 119.874 30.6474C119.714 31.2533 119.649 31.6997 119.649 31.9867C119.649 32.465 119.746 32.8477 120.003 33.1028C120.259 33.3579 120.613 33.4854 121.062 33.4854C121.672 33.4854 122.154 33.326 122.507 33.0071C122.86 32.6882 123.181 32.2099 123.438 31.5721C123.662 32.1142 124.112 32.5607 124.754 32.9433C125.396 33.326 126.167 33.4854 127.098 33.4854C128.478 33.4854 129.698 33.0709 130.757 32.2418C131.785 31.4127 132.587 30.3604 133.165 29.053C133.711 27.7456 134 26.3744 134 24.9713C134 23.0899 133.583 21.6549 132.78 20.6983ZM129.249 28.6703C128.606 29.627 127.708 30.1053 126.552 30.1053C125.846 30.1053 125.3 29.914 124.914 29.4675C124.529 29.0211 124.369 28.4152 124.369 27.5861C124.369 26.3106 124.658 25.1945 125.236 24.2698C125.813 23.345 126.68 22.8667 127.836 22.8667C129.409 22.8667 130.212 23.6639 130.212 25.1945C130.212 26.5657 129.891 27.7137 129.249 28.6703Z" fill="#102927"/>
</svg>
